<?xml version="1.0" encoding="utf-8"?>
<!-- Generator: Adobe Illustrator 17.0.0, SVG Export Plug-In . SVG Version: 6.00 Build 0)  -->
<!DOCTYPE svg PUBLIC "-//W3C//DTD SVG 1.1//EN" "http://www.w3.org/Graphics/SVG/1.1/DTD/svg11.dtd">
<svg version="1.1" id="Layer_1" xmlns:sketch="http://www.bohemiancoding.com/sketch/ns"
	 xmlns="http://www.w3.org/2000/svg" xmlns:xlink="http://www.w3.org/1999/xlink" x="0px" y="0px" width="38px" height="38px"
	 viewBox="0 0 38 38" enable-background="new 0 0 38 38" xml:space="preserve">
<g id="Page-1" sketch:type="MSPage">
	<g id="Desktop" transform="translate(-356.000000, -5535.000000)" sketch:type="MSArtboardGroup">
		<g id="social-icons" transform="translate(138.000000, 5497.000000)" sketch:type="MSLayerGroup">
			<g id="Group-9" sketch:type="MSShapeGroup">
				<path id="Fill-1" fill="#D9E1EB" d="M255.831,46.505c-1.392,0.622-2.888,1.043-4.458,1.232c1.603-0.969,2.833-2.502,3.413-4.329
					c-1.5,0.897-3.161,1.548-4.929,1.899c-1.416-1.521-3.433-2.471-5.665-2.471c-4.287,0-7.762,3.504-7.762,7.825
					c0,0.613,0.069,1.211,0.201,1.783c-6.451-0.326-12.17-3.442-15.998-8.176c-0.668,1.156-1.051,2.5-1.051,3.934
					c0,2.715,1.37,5.11,3.453,6.513c-1.272-0.041-2.469-0.393-3.516-0.979c-0.001,0.033-0.001,0.065-0.001,0.098
					c0,3.792,2.675,6.955,6.226,7.673c-0.651,0.179-1.337,0.274-2.045,0.274c-0.5,0-0.986-0.049-1.46-0.14
					c0.988,3.109,3.854,5.372,7.25,5.435c-2.656,2.099-6.003,3.35-9.639,3.35c-0.626,0-1.244-0.037-1.852-0.109
					c3.435,2.22,7.515,3.516,11.898,3.516c14.276,0,22.083-11.924,22.083-22.265c0-0.339-0.007-0.677-0.022-1.012
					C253.475,49.452,254.791,48.074,255.831,46.505"/>
			</g>
		</g>
	</g>
</g>
</svg>
