<?xml version="1.0" encoding="utf-8"?>
<!-- Generator: Adobe Illustrator 17.0.0, SVG Export Plug-In . SVG Version: 6.00 Build 0)  -->
<!DOCTYPE svg PUBLIC "-//W3C//DTD SVG 1.1//EN" "http://www.w3.org/Graphics/SVG/1.1/DTD/svg11.dtd">
<svg version="1.1" id="Layer_1" xmlns:sketch="http://www.bohemiancoding.com/sketch/ns"
	 xmlns="http://www.w3.org/2000/svg" xmlns:xlink="http://www.w3.org/1999/xlink" x="0px" y="0px" width="38px" height="38px"
	 viewBox="0 0 38 38" enable-background="new 0 0 38 38" xml:space="preserve">
<g id="Page-1" sketch:type="MSPage">
	<g id="Desktop" transform="translate(-1021.000000, -5534.000000)" sketch:type="MSArtboardGroup">
		<g id="social-icons" transform="translate(138.000000, 5497.000000)" sketch:type="MSLayerGroup">
			<g id="Group-9" sketch:type="MSShapeGroup">
				<path id="Shape" fill="#D9E1EB" d="M901.217,74.779c-1.487-0.235-2.739-1.334-4.461-3.061
					c-5.165-4.866-10.487-17.893-11.192-28.879h6.261c1.643,11.536,4.226,19.384,9.783,25.74c2.739-2.59,5.009-6.2,6.574-9.103
					c-3.052-1.413-4.774-4.081-5.713-6.514c-2.896-7.534-0.391-15.538,7.826-15.774c6.026,0,8.061,4.552,8.139,8.868
					c-0.078,2.59-0.47,4.395-1.252,6.592c-1.722,0.392-3.522-0.078-4.617-0.863c-0.861-0.628-1.174-0.314-0.626-2.04
					c0.626-2.197,0.861-6.984-2.113-7.063c-2.035,0.157-2.583,2.668-2.583,4.395c0.548,7.063,5.087,10.202,11.113,8.632v4.552
					c-1.957,0.471-2.035,0.471-4.461,0.549c-1.409,3.296-9.079,14.675-12.757,13.969H901.217L901.217,74.779z"/>
			</g>
		</g>
	</g>
</g>
</svg>
