<?xml version="1.0" encoding="utf-8"?>
<!-- Generator: Adobe Illustrator 17.0.0, SVG Export Plug-In . SVG Version: 6.00 Build 0)  -->
<!DOCTYPE svg PUBLIC "-//W3C//DTD SVG 1.1//EN" "http://www.w3.org/Graphics/SVG/1.1/DTD/svg11.dtd">
<svg version="1.1" id="Layer_1" xmlns:sketch="http://www.bohemiancoding.com/sketch/ns"
	 xmlns="http://www.w3.org/2000/svg" xmlns:xlink="http://www.w3.org/1999/xlink" x="0px" y="0px" width="38px" height="38px"
	 viewBox="0 0 38 38" enable-background="new 0 0 38 38" xml:space="preserve">
<title>Fill 15</title>
<desc>Created with Sketch.</desc>
<g id="Page-1" sketch:type="MSPage">
	<g id="Desktop" transform="translate(-583.000000, -5535.000000)" sketch:type="MSArtboardGroup">
		<g id="social-icons" transform="translate(138.000000, 5497.000000)" sketch:type="MSLayerGroup">
			<g id="Group-9" sketch:type="MSShapeGroup">
				<path id="Shape" fill="#D9E0EB" d="M479.297,38h-30.595c-2.103,0-3.824,1.72-3.824,3.821v30.57c0,2.102,1.721,3.821,3.824,3.821
					h30.595c2.103,0,3.824-1.72,3.824-3.821v-30.57C483.122,39.72,481.401,38,479.297,38L479.297,38z M464,49.464
					c4.207,0,7.649,3.439,7.649,7.643s-3.442,7.643-7.649,7.643s-7.649-3.439-7.649-7.643S459.793,49.464,464,49.464L464,49.464z
					 M449.659,72.392c-0.574,0-0.956-0.382-0.956-0.955V55.196h4.016c-0.191,0.573-0.191,1.337-0.191,1.911
					c0,6.305,5.163,11.464,11.473,11.464s11.473-5.159,11.473-11.464c0-0.573,0-1.337-0.191-1.911h4.016v16.241
					c0,0.573-0.382,0.955-0.956,0.955H449.659L449.659,72.392z M479.297,46.598c0,0.573-0.382,0.955-0.956,0.955h-3.824
					c-0.574,0-0.956-0.382-0.956-0.955v-3.821c0-0.573,0.382-0.955,0.956-0.955h3.824c0.574,0,0.956,0.382,0.956,0.955V46.598
					L479.297,46.598z"/>
			</g>
		</g>
	</g>
</g>
</svg>
