<?xml version="1.0" encoding="utf-8"?>
<!-- Generator: Adobe Illustrator 17.0.0, SVG Export Plug-In . SVG Version: 6.00 Build 0)  -->
<!DOCTYPE svg PUBLIC "-//W3C//DTD SVG 1.1//EN" "http://www.w3.org/Graphics/SVG/1.1/DTD/svg11.dtd">
<svg version="1.1" id="Layer_1" xmlns:sketch="http://www.bohemiancoding.com/sketch/ns"
	 xmlns="http://www.w3.org/2000/svg" xmlns:xlink="http://www.w3.org/1999/xlink" x="0px" y="0px" width="38px" height="38px"
	 viewBox="0 0 38 38" enable-background="new 0 0 38 38" xml:space="preserve">
<title>Fill 15</title>
<desc>Created with Sketch.</desc>
<g id="Page-1" sketch:type="MSPage">
	<g id="Desktop" transform="translate(-802.000000, -5535.000000)" sketch:type="MSArtboardGroup">
		<g id="social-icons" transform="translate(138.000000, 5497.000000)" sketch:type="MSLayerGroup">
			<g id="Group-9" sketch:type="MSShapeGroup">
				<g id="snapchat" transform="translate(664.724729, 38.045045)">
					<path id="Shape" fill="#D9E1EB" d="M-0.508,28.197v0.002c0.023,0.835,0.029,1.675,0.17,2.505
						c0.149,0.878,0.362,1.734,0.769,2.531c0.55,1.079,1.305,1.99,2.259,2.734c0.685,0.534,1.432,0.958,2.26,1.226
						c1.207,0.39,2.452,0.539,3.716,0.546c0.788,0.005,1.576,0.025,2.365,0.021c5.727-0.024,11.454,0.041,17.181-0.035
						c0.76-0.01,1.508-0.103,2.253-0.24c1.43-0.262,2.693-0.872,3.774-1.837c1.26-1.124,2.11-2.501,2.493-4.161
						c0.251-1.086,0.314-2.187,0.325-3.292v-0.22c0-0.086-0.033-18.78-0.036-19.027c-0.008-0.679-0.058-1.352-0.186-2.02
						c-0.155-0.814-0.373-1.607-0.763-2.343c-0.411-0.778-0.926-1.477-1.563-2.089c-0.976-0.936-2.102-1.599-3.413-1.949
						c-1.184-0.316-2.392-0.386-3.609-0.385c-0.002,0-0.007-0.013-0.007-0.019H9.063c0,0.006-0.001,0.013-0.001,0.019
						C8.371,0.175,7.679,0.17,6.992,0.255C6.239,0.349,5.494,0.49,4.781,0.753C3.659,1.169,2.684,1.816,1.851,2.68
						C0.907,3.658,0.242,4.79-0.111,6.108C-0.425,7.283-0.494,8.483-0.496,9.69L-0.508,28.197z M19.002,31.127
						c-0.078,0-0.153-0.003-0.21-0.005c-0.045,0.004-0.092,0.005-0.138,0.005c-1.645,0-2.744-0.763-3.715-1.437
						c-0.696-0.482-1.352-0.937-2.12-1.063c-0.377-0.061-0.753-0.093-1.116-0.093c-0.654,0-1.17,0.099-1.547,0.172
						c-0.232,0.044-0.432,0.083-0.587,0.083c-0.162,0-0.359-0.035-0.441-0.31c-0.065-0.217-0.112-0.427-0.157-0.629
						c-0.113-0.506-0.194-0.814-0.387-0.843c-2.063-0.312-3.282-0.772-3.524-1.33c-0.025-0.059-0.04-0.117-0.043-0.176
						c-0.009-0.166,0.11-0.312,0.277-0.339c1.638-0.265,3.095-1.114,4.33-2.526c0.957-1.093,1.426-2.138,1.477-2.253
						c0.002-0.005,0.005-0.011,0.007-0.016c0.238-0.474,0.285-0.883,0.141-1.217c-0.266-0.615-1.146-0.889-1.728-1.071
						c-0.145-0.045-0.282-0.088-0.391-0.13c-0.516-0.2-1.365-0.623-1.252-1.207c0.082-0.426,0.656-0.722,1.12-0.722
						c0.129,0,0.243,0.022,0.339,0.066c0.524,0.241,0.995,0.363,1.4,0.363c0.504,0,0.747-0.188,0.806-0.242
						c-0.015-0.264-0.032-0.543-0.049-0.807c0,0,0-0.003,0-0.003c-0.118-1.847-0.266-4.146,0.333-5.464
						c1.793-3.946,5.596-4.252,6.718-4.252c0.03,0,0.489-0.004,0.489-0.004c0.021,0,0.043-0.001,0.067-0.001
						c1.125,0,4.936,0.307,6.73,4.255c0.599,1.319,0.451,3.62,0.333,5.468l-0.006,0.088c-0.016,0.251-0.031,0.489-0.044,0.719
						c0.055,0.05,0.278,0.223,0.731,0.24c0.386-0.015,0.83-0.136,1.319-0.361c0.151-0.07,0.319-0.084,0.432-0.084
						c0.172,0,0.347,0.033,0.492,0.092l0.008,0.003c0.415,0.145,0.687,0.433,0.692,0.737c0.005,0.283-0.209,0.706-1.262,1.114
						c-0.108,0.042-0.246,0.085-0.391,0.13c-0.583,0.182-1.462,0.456-1.728,1.07c-0.144,0.333-0.097,0.743,0.141,1.217
						c0.003,0.005,0.005,0.01,0.007,0.016c0.073,0.169,1.848,4.139,5.806,4.779c0.167,0.027,0.286,0.173,0.277,0.339
						c-0.004,0.06-0.018,0.119-0.044,0.177c-0.241,0.554-1.46,1.014-3.523,1.326c-0.194,0.029-0.275,0.337-0.387,0.839
						c-0.046,0.208-0.093,0.411-0.157,0.625c-0.06,0.201-0.194,0.3-0.408,0.3h-0.032c-0.14,0-0.337-0.025-0.587-0.073
						c-0.436-0.083-0.925-0.161-1.547-0.161c-0.363,0-0.738,0.031-1.116,0.093c-0.768,0.125-1.424,0.58-2.118,1.062
						C21.746,30.364,20.646,31.127,19.002,31.127z"/>
				</g>
			</g>
		</g>
	</g>
</g>
</svg>
